# xmcd CD database file
#
# Track frame offsets:
#	150
#	23625
#	52580
#	80345
#	108642
#	134920
#	178195
#	207357
#	253344
#	302724
#
# Disc length: 4435 seconds
#
# Revision: 0
# Processed by: cddbd v1.5.2PL0 Copyright (c) Steve Scherf et al.
# Submitted via: CDex 1.70beta2
#
DISCID=8b11510a
DTITLE=B4 - Corazón de bronce CD1
DYEAR=2006
DGENRE=Jazz
TTITLE0=Corazón de bronce
TTITLE1=Vida adolescente
TTITLE2=Ocaso de la vida
TTITLE3=Tierra mojada
TTITLE4=Ninowska
TTITLE5=Día libre
TTITLE6=Javo
TTITLE7=Bovarismo
TTITLE8=Medley Rebeca/A mis padres/Mi gran compañera
TTITLE9=Fantaseando/Primeros latidos
EXTD=YEAR: 2006
EXTT0=
EXTT1=
EXTT2=
EXTT3=
EXTT4=
EXTT5=
EXTT6=
EXTT7=
EXTT8=
EXTT9=
PLAYORDER=
